<?xml version="1.0" encoding="utf-8"?>
<!-- Generator: Adobe Illustrator 28.1.0, SVG Export Plug-In . SVG Version: 6.00 Build 0)  -->
<svg version="1.1" id="Layer_1" xmlns="http://www.w3.org/2000/svg" xmlns:xlink="http://www.w3.org/1999/xlink" x="0px" y="0px"
	 viewBox="0 0 500 500" style="enable-background:new 0 0 500 500;" xml:space="preserve">
<style type="text/css">
	.st0{fill:#DDD8E1;}
	.st1{fill:#15291E;}
</style>
<path class="st0" d="M194.95,161.81c9.11,0,18.39,0.81,27.83,2.44c7.73,1.3,13.26,3.09,16.6,5.37c3.34,2.28,5.01,5.41,5.01,9.4
	c0,2.52-0.61,4.5-1.83,5.92c-1.22,1.42-3.87,3.15-7.93,5.19c-4.72,2.44-7.43,5.31-8.12,8.61c-0.69,3.3-1.32,16.09-1.89,38.39
	c-0.24,21.57-0.47,34.51-0.67,38.82c-0.2,4.31-0.71,8.5-1.53,12.57c-2.36,11.88-7.12,21.2-14.28,27.95
	c-5.86,5.54-13.39,9.89-22.58,13.06c-9.2,3.17-18.88,4.76-29.05,4.76c-9.03,0-18.09-1.18-27.16-3.54
	c-9.08-2.36-16.95-5.62-23.62-9.77c-5.54-3.42-9.93-8.04-13.18-13.86c-3.25-5.82-4.88-12.02-4.88-18.62c0-8.14,2.56-14.87,7.69-20.2
	c5.13-5.33,11.55-8,19.29-8c7.57,0,14,2.24,19.29,6.71c5.29,4.56,7.93,10.17,7.93,16.85c0,1.71-0.49,4.56-1.46,8.54
	c-0.16,0.81-0.24,1.71-0.24,2.69c0,2.61,0.93,4.72,2.81,6.35c1.87,1.63,4.35,2.44,7.45,2.44c5.45,0,9.85-2.44,13.18-7.32
	c3.34-4.88,5-11.31,5-19.29l-0.12-11.11l-0.24-29.91c-0.73-18.15-1.28-28.83-1.65-32.04c-0.37-3.21-1.28-5.84-2.75-7.87
	c-1.22-1.63-2.3-2.69-3.23-3.17c-0.94-0.49-3.48-1.26-7.63-2.32c-1.95-0.41-3.62-1.54-5-3.42c-1.38-1.87-2.08-3.86-2.08-5.98
	c0-4.39,1.73-7.91,5.19-10.56c3.46-2.64,9.09-4.78,16.91-6.41C176.68,162.71,185.67,161.81,194.95,161.81z"/>
<path class="st0" d="M310.87,205.13h64.33c6.92-0.24,13.22-1.18,18.92-2.81c2.44-0.65,4.6-0.98,6.47-0.98
	c6.59,0,13,4.88,19.23,14.65c6.22,9.77,9.34,19.82,9.34,30.15c0,7.08-2.16,12.25-6.47,15.5c-3.26,2.44-7.16,3.66-11.72,3.66
	c-4.31,0-8.06-1.2-11.23-3.6c-3.17-2.4-6.31-6.37-9.4-11.9c-2.69-5.04-4.8-8.34-6.35-9.89c-1.55-1.54-3.42-2.32-5.62-2.32
	c-3.01,0-5.17,1.26-6.47,3.78c-1.3,2.52-1.95,6.67-1.95,12.45v68.36c0,7,0.73,12.08,2.2,15.26s4.23,5.62,8.3,7.32
	c4.39,1.87,7.39,3.64,8.97,5.31c1.59,1.67,2.38,3.97,2.38,6.9c0,5.86-3.97,10.21-11.9,13.06c-7.93,2.85-20.12,4.27-36.56,4.27
	c-20.18,0-35.16-1.67-44.92-5c-8.22-2.77-12.33-7.24-12.33-13.43c0-3.34,1.46-5.94,4.39-7.81c0.73-0.41,3.62-1.38,8.67-2.93
	c3.09-0.89,5.23-2.6,6.41-5.13c1.18-2.52,2.14-7.36,2.87-14.53c0.65-6.35,1.26-16.62,1.83-30.82c0.57-14.2,0.85-26.51,0.85-36.93
	c0-7.32-0.57-12.53-1.71-15.62c-1.14-3.09-3.01-4.64-5.62-4.64c-3.17,0-6.27,2.28-9.28,6.84c-5.45,8.3-9.93,13.79-13.43,16.48
	c-4.15,3.17-8.18,4.76-12.08,4.76c-4.39,0-8.02-1.65-10.86-4.94c-2.85-3.3-4.27-7.51-4.27-12.63c0-5.04,1.14-10.6,3.42-16.66
	c2.28-6.06,5.33-11.66,9.15-16.78c6.18-8.3,12.29-12.45,18.31-12.45c1.63,0,3.5,0.24,5.62,0.73c4.39,0.9,8,1.51,10.8,1.83
	C303.97,204.97,307.21,205.13,310.87,205.13z"/>
<path class="st1" d="M207.96,158.12c9.11,0,18.39,0.81,27.83,2.44c7.73,1.3,13.26,3.09,16.6,5.37c3.34,2.28,5.01,5.41,5.01,9.4
	c0,2.52-0.61,4.5-1.83,5.92c-1.22,1.42-3.87,3.15-7.93,5.19c-4.72,2.44-7.43,5.31-8.12,8.61c-0.69,3.3-1.32,16.09-1.89,38.39
	c-0.24,21.57-0.47,34.51-0.67,38.82c-0.2,4.31-0.71,8.5-1.53,12.57c-2.36,11.88-7.12,21.2-14.28,27.95
	c-5.86,5.54-13.39,9.89-22.58,13.06c-9.2,3.17-18.88,4.76-29.05,4.76c-9.03,0-18.09-1.18-27.16-3.54
	c-9.08-2.36-16.95-5.62-23.62-9.77c-5.54-3.42-9.93-8.04-13.18-13.86c-3.25-5.82-4.88-12.02-4.88-18.62c0-8.14,2.56-14.87,7.69-20.2
	c5.13-5.33,11.55-8,19.29-8c7.57,0,14,2.24,19.29,6.71c5.29,4.56,7.93,10.17,7.93,16.85c0,1.71-0.49,4.56-1.46,8.54
	c-0.16,0.81-0.24,1.71-0.24,2.69c0,2.61,0.93,4.72,2.81,6.35c1.87,1.63,4.35,2.44,7.45,2.44c5.45,0,9.85-2.44,13.18-7.32
	c3.34-4.88,5-11.31,5-19.29l-0.12-11.11l-0.24-29.91c-0.73-18.15-1.28-28.83-1.65-32.04c-0.37-3.21-1.28-5.84-2.75-7.87
	c-1.22-1.63-2.3-2.69-3.23-3.17c-0.94-0.49-3.48-1.26-7.63-2.32c-1.95-0.41-3.62-1.54-5-3.42c-1.38-1.87-2.08-3.86-2.08-5.98
	c0-4.39,1.73-7.91,5.19-10.56c3.46-2.64,9.09-4.78,16.91-6.41C189.69,159.02,198.68,158.12,207.96,158.12z"/>
<path class="st1" d="M301.39,201.28h64.33c6.92-0.24,13.22-1.18,18.92-2.81c2.44-0.65,4.6-0.98,6.47-0.98
	c6.59,0,13,4.88,19.23,14.65c6.22,9.77,9.34,19.82,9.34,30.15c0,7.08-2.16,12.25-6.47,15.5c-3.26,2.44-7.16,3.66-11.72,3.66
	c-4.31,0-8.06-1.2-11.23-3.6c-3.17-2.4-6.31-6.37-9.4-11.9c-2.69-5.04-4.8-8.34-6.35-9.89c-1.55-1.54-3.42-2.32-5.62-2.32
	c-3.01,0-5.17,1.26-6.47,3.78c-1.3,2.52-1.95,6.67-1.95,12.45v68.36c0,7,0.73,12.08,2.2,15.26s4.23,5.62,8.3,7.32
	c4.39,1.87,7.39,3.64,8.97,5.31c1.59,1.67,2.38,3.97,2.38,6.9c0,5.86-3.97,10.21-11.9,13.06c-7.93,2.85-20.12,4.27-36.56,4.27
	c-20.18,0-35.16-1.67-44.92-5c-8.22-2.77-12.33-7.24-12.33-13.43c0-3.34,1.46-5.94,4.39-7.81c0.73-0.41,3.62-1.38,8.67-2.93
	c3.09-0.89,5.23-2.6,6.41-5.13c1.18-2.52,2.14-7.36,2.87-14.53c0.65-6.35,1.26-16.62,1.83-30.82c0.57-14.2,0.85-26.51,0.85-36.93
	c0-7.32-0.57-12.53-1.71-15.62c-1.14-3.09-3.01-4.64-5.62-4.64c-3.17,0-6.27,2.28-9.28,6.84c-5.45,8.3-9.93,13.79-13.43,16.48
	c-4.15,3.17-8.18,4.76-12.08,4.76c-4.39,0-8.02-1.65-10.86-4.94c-2.85-3.3-4.27-7.51-4.27-12.63c0-5.04,1.14-10.6,3.42-16.66
	c2.28-6.06,5.33-11.66,9.15-16.78c6.18-8.3,12.29-12.45,18.31-12.45c1.63,0,3.5,0.24,5.62,0.73c4.39,0.9,8,1.51,10.8,1.83
	C294.5,201.11,297.73,201.28,301.39,201.28z"/>
</svg>
